# xmcd
#
# Track frame offsets: 
#        182
#        17332
#        35157
#        55532
#        71767
#        92580
#        107825
#        127320
#        142340
#        156940
#        170242
#        188340
#        204510
#        221345
#        237292
#
# Disc length: 3410 seconds
#
# Revision: 0
# Processed by: cddbd v1.4PL0 Copyright (c) Steve Scherf et al.
# Submitted via: ExactAudioCopy v0.90b4
#
DISCID=da0d500f
DTITLE=Mara - 15 Exitos Rebeldes
DYEAR=1992
DGENRE=Blues
TTITLE0=Luna Llena
TTITLE1=Rebelde
TTITLE2=Hipocrita
TTITLE3=No Me Importa
TTITLE4=Grito De Amor
TTITLE5=Me Gusta Tu Chava
TTITLE6=Hotel
TTITLE7=Tu Novia Te Engaña
TTITLE8=Maquina Del Rock
TTITLE9=Niña
TTITLE10=Fantasma Del Rock
TTITLE11=No Soy Un Chavo Disco
TTITLE12=Pinche Alcohol
TTITLE13=Aborto
TTITLE14=La Rubia
EXTD=
EXTT0=
EXTT1=
EXTT2=
EXTT3=
EXTT4=
EXTT5=
EXTT6=
EXTT7=
EXTT8=
EXTT9=
EXTT10=
EXTT11=
EXTT12=
EXTT13=
EXTT14=
PLAYORDER=
